<?xml version="1.0" encoding="utf-8" standalone="no"?>
<!DOCTYPE svg PUBLIC "-//W3C//DTD SVG 1.1//EN"
  "http://www.w3.org/Graphics/SVG/1.1/DTD/svg11.dtd">
<svg xmlns:xlink="http://www.w3.org/1999/xlink" width="3999.020312pt" height="269.394375pt" viewBox="0 0 3999.020312 269.394375" xmlns="http://www.w3.org/2000/svg" version="1.1">
 <metadata>
  <rdf:RDF xmlns:dc="http://purl.org/dc/elements/1.1/" xmlns:cc="http://creativecommons.org/ns#" xmlns:rdf="http://www.w3.org/1999/02/22-rdf-syntax-ns#">
   <cc:Work>
    <dc:type rdf:resource="http://purl.org/dc/dcmitype/StillImage"/>
    <dc:date>2023-11-18T09:03:14.119836</dc:date>
    <dc:format>image/svg+xml</dc:format>
    <dc:creator>
     <cc:Agent>
      <dc:title>Matplotlib v3.7.2, https://matplotlib.org/</dc:title>
     </cc:Agent>
    </dc:creator>
   </cc:Work>
  </rdf:RDF>
 </metadata>
 <defs>
  <style type="text/css">*{stroke-linejoin: round; stroke-linecap: butt}</style>
 </defs>
 <g id="figure_1">
  <g id="patch_1">
   <path d="M 0 269.394375 
L 3999.020312 269.394375 
L 3999.020312 0 
L 0 0 
z
" style="fill: #ffffff"/>
  </g>
  <g id="axes_1">
   <g id="patch_2">
    <path d="M 64.220312 210.238125 
L 3970.220313 210.238125 
L 3970.220313 43.918125 
L 64.220312 43.918125 
z
" style="fill: #ffffff"/>
   </g>
   <g id="matplotlib.axis_1">
    <g id="xtick_1">
     <g id="line2d_1">
      <defs>
       <path id="m9e9e29c42d" d="M 0 0 
L 0 3.5 
" style="stroke: #000000; stroke-width: 0.8"/>
      </defs>
      <g>
       <use xlink:href="#m9e9e29c42d" x="118.470312" y="210.238125" style="stroke: #000000; stroke-width: 0.8"/>
      </g>
     </g>
     <g id="text_1">
      <!-- 0.0 -->
      <g transform="translate(110.51875 224.836563) scale(0.1 -0.1)">
       <defs>
        <path id="DejaVuSans-30" d="M 2034 4250 
Q 1547 4250 1301 3770 
Q 1056 3291 1056 2328 
Q 1056 1369 1301 889 
Q 1547 409 2034 409 
Q 2525 409 2770 889 
Q 3016 1369 3016 2328 
Q 3016 3291 2770 3770 
Q 2525 4250 2034 4250 
z
M 2034 4750 
Q 2819 4750 3233 4129 
Q 3647 3509 3647 2328 
Q 3647 1150 3233 529 
Q 2819 -91 2034 -91 
Q 1250 -91 836 529 
Q 422 1150 422 2328 
Q 422 3509 836 4129 
Q 1250 4750 2034 4750 
z
" transform="scale(0.015625)"/>
        <path id="DejaVuSans-2e" d="M 684 794 
L 1344 794 
L 1344 0 
L 684 0 
L 684 794 
z
" transform="scale(0.015625)"/>
       </defs>
       <use xlink:href="#DejaVuSans-30"/>
       <use xlink:href="#DejaVuSans-2e" x="63.623047"/>
       <use xlink:href="#DejaVuSans-30" x="95.410156"/>
      </g>
     </g>
    </g>
    <g id="xtick_2">
     <g id="line2d_2">
      <g>
       <use xlink:href="#m9e9e29c42d" x="172.720312" y="210.238125" style="stroke: #000000; stroke-width: 0.8"/>
      </g>
     </g>
     <g id="text_2">
      <!-- 0.1 -->
      <g transform="translate(164.76875 224.836563) scale(0.1 -0.1)">
       <defs>
        <path id="DejaVuSans-31" d="M 794 531 
L 1825 531 
L 1825 4091 
L 703 3866 
L 703 4441 
L 1819 4666 
L 2450 4666 
L 2450 531 
L 3481 531 
L 3481 0 
L 794 0 
L 794 531 
z
" transform="scale(0.015625)"/>
       </defs>
       <use xlink:href="#DejaVuSans-30"/>
       <use xlink:href="#DejaVuSans-2e" x="63.623047"/>
       <use xlink:href="#DejaVuSans-31" x="95.410156"/>
      </g>
     </g>
    </g>
    <g id="xtick_3">
     <g id="line2d_3">
      <g>
       <use xlink:href="#m9e9e29c42d" x="226.970312" y="210.238125" style="stroke: #000000; stroke-width: 0.8"/>
      </g>
     </g>
     <g id="text_3">
      <!-- 0.2 -->
      <g transform="translate(219.01875 224.836563) scale(0.1 -0.1)">
       <defs>
        <path id="DejaVuSans-32" d="M 1228 531 
L 3431 531 
L 3431 0 
L 469 0 
L 469 531 
Q 828 903 1448 1529 
Q 2069 2156 2228 2338 
Q 2531 2678 2651 2914 
Q 2772 3150 2772 3378 
Q 2772 3750 2511 3984 
Q 2250 4219 1831 4219 
Q 1534 4219 1204 4116 
Q 875 4013 500 3803 
L 500 4441 
Q 881 4594 1212 4672 
Q 1544 4750 1819 4750 
Q 2544 4750 2975 4387 
Q 3406 4025 3406 3419 
Q 3406 3131 3298 2873 
Q 3191 2616 2906 2266 
Q 2828 2175 2409 1742 
Q 1991 1309 1228 531 
z
" transform="scale(0.015625)"/>
       </defs>
       <use xlink:href="#DejaVuSans-30"/>
       <use xlink:href="#DejaVuSans-2e" x="63.623047"/>
       <use xlink:href="#DejaVuSans-32" x="95.410156"/>
      </g>
     </g>
    </g>
    <g id="xtick_4">
     <g id="line2d_4">
      <g>
       <use xlink:href="#m9e9e29c42d" x="281.220312" y="210.238125" style="stroke: #000000; stroke-width: 0.8"/>
      </g>
     </g>
     <g id="text_4">
      <!-- 0.3 -->
      <g transform="translate(273.26875 224.836563) scale(0.1 -0.1)">
       <defs>
        <path id="DejaVuSans-33" d="M 2597 2516 
Q 3050 2419 3304 2112 
Q 3559 1806 3559 1356 
Q 3559 666 3084 287 
Q 2609 -91 1734 -91 
Q 1441 -91 1130 -33 
Q 819 25 488 141 
L 488 750 
Q 750 597 1062 519 
Q 1375 441 1716 441 
Q 2309 441 2620 675 
Q 2931 909 2931 1356 
Q 2931 1769 2642 2001 
Q 2353 2234 1838 2234 
L 1294 2234 
L 1294 2753 
L 1863 2753 
Q 2328 2753 2575 2939 
Q 2822 3125 2822 3475 
Q 2822 3834 2567 4026 
Q 2313 4219 1838 4219 
Q 1578 4219 1281 4162 
Q 984 4106 628 3988 
L 628 4550 
Q 988 4650 1302 4700 
Q 1616 4750 1894 4750 
Q 2613 4750 3031 4423 
Q 3450 4097 3450 3541 
Q 3450 3153 3228 2886 
Q 3006 2619 2597 2516 
z
" transform="scale(0.015625)"/>
       </defs>
       <use xlink:href="#DejaVuSans-30"/>
       <use xlink:href="#DejaVuSans-2e" x="63.623047"/>
       <use xlink:href="#DejaVuSans-33" x="95.410156"/>
      </g>
     </g>
    </g>
    <g id="xtick_5">
     <g id="line2d_5">
      <g>
       <use xlink:href="#m9e9e29c42d" x="335.470312" y="210.238125" style="stroke: #000000; stroke-width: 0.8"/>
      </g>
     </g>
     <g id="text_5">
      <!-- 0.4 -->
      <g transform="translate(327.51875 224.836563) scale(0.1 -0.1)">
       <defs>
        <path id="DejaVuSans-34" d="M 2419 4116 
L 825 1625 
L 2419 1625 
L 2419 4116 
z
M 2253 4666 
L 3047 4666 
L 3047 1625 
L 3713 1625 
L 3713 1100 
L 3047 1100 
L 3047 0 
L 2419 0 
L 2419 1100 
L 313 1100 
L 313 1709 
L 2253 4666 
z
" transform="scale(0.015625)"/>
       </defs>
       <use xlink:href="#DejaVuSans-30"/>
       <use xlink:href="#DejaVuSans-2e" x="63.623047"/>
       <use xlink:href="#DejaVuSans-34" x="95.410156"/>
      </g>
     </g>
    </g>
    <g id="xtick_6">
     <g id="line2d_6">
      <g>
       <use xlink:href="#m9e9e29c42d" x="389.720312" y="210.238125" style="stroke: #000000; stroke-width: 0.8"/>
      </g>
     </g>
     <g id="text_6">
      <!-- 0.5 -->
      <g transform="translate(381.76875 224.836563) scale(0.1 -0.1)">
       <defs>
        <path id="DejaVuSans-35" d="M 691 4666 
L 3169 4666 
L 3169 4134 
L 1269 4134 
L 1269 2991 
Q 1406 3038 1543 3061 
Q 1681 3084 1819 3084 
Q 2600 3084 3056 2656 
Q 3513 2228 3513 1497 
Q 3513 744 3044 326 
Q 2575 -91 1722 -91 
Q 1428 -91 1123 -41 
Q 819 9 494 109 
L 494 744 
Q 775 591 1075 516 
Q 1375 441 1709 441 
Q 2250 441 2565 725 
Q 2881 1009 2881 1497 
Q 2881 1984 2565 2268 
Q 2250 2553 1709 2553 
Q 1456 2553 1204 2497 
Q 953 2441 691 2322 
L 691 4666 
z
" transform="scale(0.015625)"/>
       </defs>
       <use xlink:href="#DejaVuSans-30"/>
       <use xlink:href="#DejaVuSans-2e" x="63.623047"/>
       <use xlink:href="#DejaVuSans-35" x="95.410156"/>
      </g>
     </g>
    </g>
    <g id="xtick_7">
     <g id="line2d_7">
      <g>
       <use xlink:href="#m9e9e29c42d" x="443.970313" y="210.238125" style="stroke: #000000; stroke-width: 0.8"/>
      </g>
     </g>
     <g id="text_7">
      <!-- 0.6 -->
      <g transform="translate(436.01875 224.836563) scale(0.1 -0.1)">
       <defs>
        <path id="DejaVuSans-36" d="M 2113 2584 
Q 1688 2584 1439 2293 
Q 1191 2003 1191 1497 
Q 1191 994 1439 701 
Q 1688 409 2113 409 
Q 2538 409 2786 701 
Q 3034 994 3034 1497 
Q 3034 2003 2786 2293 
Q 2538 2584 2113 2584 
z
M 3366 4563 
L 3366 3988 
Q 3128 4100 2886 4159 
Q 2644 4219 2406 4219 
Q 1781 4219 1451 3797 
Q 1122 3375 1075 2522 
Q 1259 2794 1537 2939 
Q 1816 3084 2150 3084 
Q 2853 3084 3261 2657 
Q 3669 2231 3669 1497 
Q 3669 778 3244 343 
Q 2819 -91 2113 -91 
Q 1303 -91 875 529 
Q 447 1150 447 2328 
Q 447 3434 972 4092 
Q 1497 4750 2381 4750 
Q 2619 4750 2861 4703 
Q 3103 4656 3366 4563 
z
" transform="scale(0.015625)"/>
       </defs>
       <use xlink:href="#DejaVuSans-30"/>
       <use xlink:href="#DejaVuSans-2e" x="63.623047"/>
       <use xlink:href="#DejaVuSans-36" x="95.410156"/>
      </g>
     </g>
    </g>
    <g id="xtick_8">
     <g id="line2d_8">
      <g>
       <use xlink:href="#m9e9e29c42d" x="498.220313" y="210.238125" style="stroke: #000000; stroke-width: 0.8"/>
      </g>
     </g>
     <g id="text_8">
      <!-- 0.7 -->
      <g transform="translate(490.26875 224.836563) scale(0.1 -0.1)">
       <defs>
        <path id="DejaVuSans-37" d="M 525 4666 
L 3525 4666 
L 3525 4397 
L 1831 0 
L 1172 0 
L 2766 4134 
L 525 4134 
L 525 4666 
z
" transform="scale(0.015625)"/>
       </defs>
       <use xlink:href="#DejaVuSans-30"/>
       <use xlink:href="#DejaVuSans-2e" x="63.623047"/>
       <use xlink:href="#DejaVuSans-37" x="95.410156"/>
      </g>
     </g>
    </g>
    <g id="xtick_9">
     <g id="line2d_9">
      <g>
       <use xlink:href="#m9e9e29c42d" x="552.470312" y="210.238125" style="stroke: #000000; stroke-width: 0.8"/>
      </g>
     </g>
     <g id="text_9">
      <!-- 0.8 -->
      <g transform="translate(544.51875 224.836563) scale(0.1 -0.1)">
       <defs>
        <path id="DejaVuSans-38" d="M 2034 2216 
Q 1584 2216 1326 1975 
Q 1069 1734 1069 1313 
Q 1069 891 1326 650 
Q 1584 409 2034 409 
Q 2484 409 2743 651 
Q 3003 894 3003 1313 
Q 3003 1734 2745 1975 
Q 2488 2216 2034 2216 
z
M 1403 2484 
Q 997 2584 770 2862 
Q 544 3141 544 3541 
Q 544 4100 942 4425 
Q 1341 4750 2034 4750 
Q 2731 4750 3128 4425 
Q 3525 4100 3525 3541 
Q 3525 3141 3298 2862 
Q 3072 2584 2669 2484 
Q 3125 2378 3379 2068 
Q 3634 1759 3634 1313 
Q 3634 634 3220 271 
Q 2806 -91 2034 -91 
Q 1263 -91 848 271 
Q 434 634 434 1313 
Q 434 1759 690 2068 
Q 947 2378 1403 2484 
z
M 1172 3481 
Q 1172 3119 1398 2916 
Q 1625 2713 2034 2713 
Q 2441 2713 2670 2916 
Q 2900 3119 2900 3481 
Q 2900 3844 2670 4047 
Q 2441 4250 2034 4250 
Q 1625 4250 1398 4047 
Q 1172 3844 1172 3481 
z
" transform="scale(0.015625)"/>
       </defs>
       <use xlink:href="#DejaVuSans-30"/>
       <use xlink:href="#DejaVuSans-2e" x="63.623047"/>
       <use xlink:href="#DejaVuSans-38" x="95.410156"/>
      </g>
     </g>
    </g>
    <g id="xtick_10">
     <g id="line2d_10">
      <g>
       <use xlink:href="#m9e9e29c42d" x="606.720312" y="210.238125" style="stroke: #000000; stroke-width: 0.8"/>
      </g>
     </g>
     <g id="text_10">
      <!-- 0.9 -->
      <g transform="translate(598.76875 224.836563) scale(0.1 -0.1)">
       <defs>
        <path id="DejaVuSans-39" d="M 703 97 
L 703 672 
Q 941 559 1184 500 
Q 1428 441 1663 441 
Q 2288 441 2617 861 
Q 2947 1281 2994 2138 
Q 2813 1869 2534 1725 
Q 2256 1581 1919 1581 
Q 1219 1581 811 2004 
Q 403 2428 403 3163 
Q 403 3881 828 4315 
Q 1253 4750 1959 4750 
Q 2769 4750 3195 4129 
Q 3622 3509 3622 2328 
Q 3622 1225 3098 567 
Q 2575 -91 1691 -91 
Q 1453 -91 1209 -44 
Q 966 3 703 97 
z
M 1959 2075 
Q 2384 2075 2632 2365 
Q 2881 2656 2881 3163 
Q 2881 3666 2632 3958 
Q 2384 4250 1959 4250 
Q 1534 4250 1286 3958 
Q 1038 3666 1038 3163 
Q 1038 2656 1286 2365 
Q 1534 2075 1959 2075 
z
" transform="scale(0.015625)"/>
       </defs>
       <use xlink:href="#DejaVuSans-30"/>
       <use xlink:href="#DejaVuSans-2e" x="63.623047"/>
       <use xlink:href="#DejaVuSans-39" x="95.410156"/>
      </g>
     </g>
    </g>
    <g id="xtick_11">
     <g id="line2d_11">
      <g>
       <use xlink:href="#m9e9e29c42d" x="660.970312" y="210.238125" style="stroke: #000000; stroke-width: 0.8"/>
      </g>
     </g>
     <g id="text_11">
      <!-- 1.0 -->
      <g transform="translate(653.01875 224.836563) scale(0.1 -0.1)">
       <use xlink:href="#DejaVuSans-31"/>
       <use xlink:href="#DejaVuSans-2e" x="63.623047"/>
       <use xlink:href="#DejaVuSans-30" x="95.410156"/>
      </g>
     </g>
    </g>
    <g id="xtick_12">
     <g id="line2d_12">
      <g>
       <use xlink:href="#m9e9e29c42d" x="715.220312" y="210.238125" style="stroke: #000000; stroke-width: 0.8"/>
      </g>
     </g>
     <g id="text_12">
      <!-- 1.1 -->
      <g transform="translate(707.26875 224.836563) scale(0.1 -0.1)">
       <use xlink:href="#DejaVuSans-31"/>
       <use xlink:href="#DejaVuSans-2e" x="63.623047"/>
       <use xlink:href="#DejaVuSans-31" x="95.410156"/>
      </g>
     </g>
    </g>
    <g id="xtick_13">
     <g id="line2d_13">
      <g>
       <use xlink:href="#m9e9e29c42d" x="769.470313" y="210.238125" style="stroke: #000000; stroke-width: 0.8"/>
      </g>
     </g>
     <g id="text_13">
      <!-- 1.2 -->
      <g transform="translate(761.51875 224.836563) scale(0.1 -0.1)">
       <use xlink:href="#DejaVuSans-31"/>
       <use xlink:href="#DejaVuSans-2e" x="63.623047"/>
       <use xlink:href="#DejaVuSans-32" x="95.410156"/>
      </g>
     </g>
    </g>
    <g id="xtick_14">
     <g id="line2d_14">
      <g>
       <use xlink:href="#m9e9e29c42d" x="823.720312" y="210.238125" style="stroke: #000000; stroke-width: 0.8"/>
      </g>
     </g>
     <g id="text_14">
      <!-- 1.3 -->
      <g transform="translate(815.76875 224.836563) scale(0.1 -0.1)">
       <use xlink:href="#DejaVuSans-31"/>
       <use xlink:href="#DejaVuSans-2e" x="63.623047"/>
       <use xlink:href="#DejaVuSans-33" x="95.410156"/>
      </g>
     </g>
    </g>
    <g id="xtick_15">
     <g id="line2d_15">
      <g>
       <use xlink:href="#m9e9e29c42d" x="877.970313" y="210.238125" style="stroke: #000000; stroke-width: 0.8"/>
      </g>
     </g>
     <g id="text_15">
      <!-- 1.4 -->
      <g transform="translate(870.01875 224.836563) scale(0.1 -0.1)">
       <use xlink:href="#DejaVuSans-31"/>
       <use xlink:href="#DejaVuSans-2e" x="63.623047"/>
       <use xlink:href="#DejaVuSans-34" x="95.410156"/>
      </g>
     </g>
    </g>
    <g id="xtick_16">
     <g id="line2d_16">
      <g>
       <use xlink:href="#m9e9e29c42d" x="932.220312" y="210.238125" style="stroke: #000000; stroke-width: 0.8"/>
      </g>
     </g>
     <g id="text_16">
      <!-- 1.5 -->
      <g transform="translate(924.26875 224.836563) scale(0.1 -0.1)">
       <use xlink:href="#DejaVuSans-31"/>
       <use xlink:href="#DejaVuSans-2e" x="63.623047"/>
       <use xlink:href="#DejaVuSans-35" x="95.410156"/>
      </g>
     </g>
    </g>
    <g id="xtick_17">
     <g id="line2d_17">
      <g>
       <use xlink:href="#m9e9e29c42d" x="986.470312" y="210.238125" style="stroke: #000000; stroke-width: 0.8"/>
      </g>
     </g>
     <g id="text_17">
      <!-- 1.6 -->
      <g transform="translate(978.51875 224.836563) scale(0.1 -0.1)">
       <use xlink:href="#DejaVuSans-31"/>
       <use xlink:href="#DejaVuSans-2e" x="63.623047"/>
       <use xlink:href="#DejaVuSans-36" x="95.410156"/>
      </g>
     </g>
    </g>
    <g id="xtick_18">
     <g id="line2d_18">
      <g>
       <use xlink:href="#m9e9e29c42d" x="1040.720313" y="210.238125" style="stroke: #000000; stroke-width: 0.8"/>
      </g>
     </g>
     <g id="text_18">
      <!-- 1.7 -->
      <g transform="translate(1032.76875 224.836563) scale(0.1 -0.1)">
       <use xlink:href="#DejaVuSans-31"/>
       <use xlink:href="#DejaVuSans-2e" x="63.623047"/>
       <use xlink:href="#DejaVuSans-37" x="95.410156"/>
      </g>
     </g>
    </g>
    <g id="xtick_19">
     <g id="line2d_19">
      <g>
       <use xlink:href="#m9e9e29c42d" x="1094.970313" y="210.238125" style="stroke: #000000; stroke-width: 0.8"/>
      </g>
     </g>
     <g id="text_19">
      <!-- 1.8 -->
      <g transform="translate(1087.01875 224.836563) scale(0.1 -0.1)">
       <use xlink:href="#DejaVuSans-31"/>
       <use xlink:href="#DejaVuSans-2e" x="63.623047"/>
       <use xlink:href="#DejaVuSans-38" x="95.410156"/>
      </g>
     </g>
    </g>
    <g id="xtick_20">
     <g id="line2d_20">
      <g>
       <use xlink:href="#m9e9e29c42d" x="1149.220313" y="210.238125" style="stroke: #000000; stroke-width: 0.8"/>
      </g>
     </g>
     <g id="text_20">
      <!-- 1.9 -->
      <g transform="translate(1141.26875 224.836563) scale(0.1 -0.1)">
       <use xlink:href="#DejaVuSans-31"/>
       <use xlink:href="#DejaVuSans-2e" x="63.623047"/>
       <use xlink:href="#DejaVuSans-39" x="95.410156"/>
      </g>
     </g>
    </g>
    <g id="xtick_21">
     <g id="line2d_21">
      <g>
       <use xlink:href="#m9e9e29c42d" x="1203.470313" y="210.238125" style="stroke: #000000; stroke-width: 0.8"/>
      </g>
     </g>
     <g id="text_21">
      <!-- 2.0 -->
      <g transform="translate(1195.51875 224.836563) scale(0.1 -0.1)">
       <use xlink:href="#DejaVuSans-32"/>
       <use xlink:href="#DejaVuSans-2e" x="63.623047"/>
       <use xlink:href="#DejaVuSans-30" x="95.410156"/>
      </g>
     </g>
    </g>
    <g id="xtick_22">
     <g id="line2d_22">
      <g>
       <use xlink:href="#m9e9e29c42d" x="1257.720313" y="210.238125" style="stroke: #000000; stroke-width: 0.8"/>
      </g>
     </g>
     <g id="text_22">
      <!-- 2.1 -->
      <g transform="translate(1249.76875 224.836563) scale(0.1 -0.1)">
       <use xlink:href="#DejaVuSans-32"/>
       <use xlink:href="#DejaVuSans-2e" x="63.623047"/>
       <use xlink:href="#DejaVuSans-31" x="95.410156"/>
      </g>
     </g>
    </g>
    <g id="xtick_23">
     <g id="line2d_23">
      <g>
       <use xlink:href="#m9e9e29c42d" x="1311.970313" y="210.238125" style="stroke: #000000; stroke-width: 0.8"/>
      </g>
     </g>
     <g id="text_23">
      <!-- 2.2 -->
      <g transform="translate(1304.01875 224.836563) scale(0.1 -0.1)">
       <use xlink:href="#DejaVuSans-32"/>
       <use xlink:href="#DejaVuSans-2e" x="63.623047"/>
       <use xlink:href="#DejaVuSans-32" x="95.410156"/>
      </g>
     </g>
    </g>
    <g id="xtick_24">
     <g id="line2d_24">
      <g>
       <use xlink:href="#m9e9e29c42d" x="1366.220313" y="210.238125" style="stroke: #000000; stroke-width: 0.8"/>
      </g>
     </g>
     <g id="text_24">
      <!-- 2.3 -->
      <g transform="translate(1358.26875 224.836563) scale(0.1 -0.1)">
       <use xlink:href="#DejaVuSans-32"/>
       <use xlink:href="#DejaVuSans-2e" x="63.623047"/>
       <use xlink:href="#DejaVuSans-33" x="95.410156"/>
      </g>
     </g>
    </g>
    <g id="xtick_25">
     <g id="line2d_25">
      <g>
       <use xlink:href="#m9e9e29c42d" x="1420.470313" y="210.238125" style="stroke: #000000; stroke-width: 0.8"/>
      </g>
     </g>
     <g id="text_25">
      <!-- 2.4 -->
      <g transform="translate(1412.51875 224.836563) scale(0.1 -0.1)">
       <use xlink:href="#DejaVuSans-32"/>
       <use xlink:href="#DejaVuSans-2e" x="63.623047"/>
       <use xlink:href="#DejaVuSans-34" x="95.410156"/>
      </g>
     </g>
    </g>
    <g id="xtick_26">
     <g id="line2d_26">
      <g>
       <use xlink:href="#m9e9e29c42d" x="1474.720313" y="210.238125" style="stroke: #000000; stroke-width: 0.8"/>
      </g>
     </g>
     <g id="text_26">
      <!-- 2.5 -->
      <g transform="translate(1466.76875 224.836563) scale(0.1 -0.1)">
       <use xlink:href="#DejaVuSans-32"/>
       <use xlink:href="#DejaVuSans-2e" x="63.623047"/>
       <use xlink:href="#DejaVuSans-35" x="95.410156"/>
      </g>
     </g>
    </g>
    <g id="xtick_27">
     <g id="line2d_27">
      <g>
       <use xlink:href="#m9e9e29c42d" x="1528.970313" y="210.238125" style="stroke: #000000; stroke-width: 0.8"/>
      </g>
     </g>
     <g id="text_27">
      <!-- 2.6 -->
      <g transform="translate(1521.01875 224.836563) scale(0.1 -0.1)">
       <use xlink:href="#DejaVuSans-32"/>
       <use xlink:href="#DejaVuSans-2e" x="63.623047"/>
       <use xlink:href="#DejaVuSans-36" x="95.410156"/>
      </g>
     </g>
    </g>
    <g id="xtick_28">
     <g id="line2d_28">
      <g>
       <use xlink:href="#m9e9e29c42d" x="1583.220313" y="210.238125" style="stroke: #000000; stroke-width: 0.8"/>
      </g>
     </g>
     <g id="text_28">
      <!-- 2.7 -->
      <g transform="translate(1575.26875 224.836563) scale(0.1 -0.1)">
       <use xlink:href="#DejaVuSans-32"/>
       <use xlink:href="#DejaVuSans-2e" x="63.623047"/>
       <use xlink:href="#DejaVuSans-37" x="95.410156"/>
      </g>
     </g>
    </g>
    <g id="xtick_29">
     <g id="line2d_29">
      <g>
       <use xlink:href="#m9e9e29c42d" x="1637.470313" y="210.238125" style="stroke: #000000; stroke-width: 0.8"/>
      </g>
     </g>
     <g id="text_29">
      <!-- 2.8 -->
      <g transform="translate(1629.51875 224.836563) scale(0.1 -0.1)">
       <use xlink:href="#DejaVuSans-32"/>
       <use xlink:href="#DejaVuSans-2e" x="63.623047"/>
       <use xlink:href="#DejaVuSans-38" x="95.410156"/>
      </g>
     </g>
    </g>
    <g id="xtick_30">
     <g id="line2d_30">
      <g>
       <use xlink:href="#m9e9e29c42d" x="1691.720313" y="210.238125" style="stroke: #000000; stroke-width: 0.8"/>
      </g>
     </g>
     <g id="text_30">
      <!-- 2.9 -->
      <g transform="translate(1683.76875 224.836563) scale(0.1 -0.1)">
       <use xlink:href="#DejaVuSans-32"/>
       <use xlink:href="#DejaVuSans-2e" x="63.623047"/>
       <use xlink:href="#DejaVuSans-39" x="95.410156"/>
      </g>
     </g>
    </g>
    <g id="xtick_31">
     <g id="line2d_31">
      <g>
       <use xlink:href="#m9e9e29c42d" x="1745.970313" y="210.238125" style="stroke: #000000; stroke-width: 0.8"/>
      </g>
     </g>
     <g id="text_31">
      <!-- 3.0 -->
      <g transform="translate(1738.01875 224.836563) scale(0.1 -0.1)">
       <use xlink:href="#DejaVuSans-33"/>
       <use xlink:href="#DejaVuSans-2e" x="63.623047"/>
       <use xlink:href="#DejaVuSans-30" x="95.410156"/>
      </g>
     </g>
    </g>
    <g id="xtick_32">
     <g id="line2d_32">
      <g>
       <use xlink:href="#m9e9e29c42d" x="1800.220313" y="210.238125" style="stroke: #000000; stroke-width: 0.8"/>
      </g>
     </g>
     <g id="text_32">
      <!-- 3.1 -->
      <g transform="translate(1792.26875 224.836563) scale(0.1 -0.1)">
       <use xlink:href="#DejaVuSans-33"/>
       <use xlink:href="#DejaVuSans-2e" x="63.623047"/>
       <use xlink:href="#DejaVuSans-31" x="95.410156"/>
      </g>
     </g>
    </g>
    <g id="xtick_33">
     <g id="line2d_33">
      <g>
       <use xlink:href="#m9e9e29c42d" x="1854.470313" y="210.238125" style="stroke: #000000; stroke-width: 0.8"/>
      </g>
     </g>
     <g id="text_33">
      <!-- 3.2 -->
      <g transform="translate(1846.51875 224.836563) scale(0.1 -0.1)">
       <use xlink:href="#DejaVuSans-33"/>
       <use xlink:href="#DejaVuSans-2e" x="63.623047"/>
       <use xlink:href="#DejaVuSans-32" x="95.410156"/>
      </g>
     </g>
    </g>
    <g id="xtick_34">
     <g id="line2d_34">
      <g>
       <use xlink:href="#m9e9e29c42d" x="1908.720313" y="210.238125" style="stroke: #000000; stroke-width: 0.8"/>
      </g>
     </g>
     <g id="text_34">
      <!-- 3.3 -->
      <g transform="translate(1900.76875 224.836563) scale(0.1 -0.1)">
       <use xlink:href="#DejaVuSans-33"/>
       <use xlink:href="#DejaVuSans-2e" x="63.623047"/>
       <use xlink:href="#DejaVuSans-33" x="95.410156"/>
      </g>
     </g>
    </g>
    <g id="xtick_35">
     <g id="line2d_35">
      <g>
       <use xlink:href="#m9e9e29c42d" x="1962.970313" y="210.238125" style="stroke: #000000; stroke-width: 0.8"/>
      </g>
     </g>
     <g id="text_35">
      <!-- 3.4 -->
      <g transform="translate(1955.01875 224.836563) scale(0.1 -0.1)">
       <use xlink:href="#DejaVuSans-33"/>
       <use xlink:href="#DejaVuSans-2e" x="63.623047"/>
       <use xlink:href="#DejaVuSans-34" x="95.410156"/>
      </g>
     </g>
    </g>
    <g id="xtick_36">
     <g id="line2d_36">
      <g>
       <use xlink:href="#m9e9e29c42d" x="2017.220313" y="210.238125" style="stroke: #000000; stroke-width: 0.8"/>
      </g>
     </g>
     <g id="text_36">
      <!-- 3.5 -->
      <g transform="translate(2009.26875 224.836563) scale(0.1 -0.1)">
       <use xlink:href="#DejaVuSans-33"/>
       <use xlink:href="#DejaVuSans-2e" x="63.623047"/>
       <use xlink:href="#DejaVuSans-35" x="95.410156"/>
      </g>
     </g>
    </g>
    <g id="xtick_37">
     <g id="line2d_37">
      <g>
       <use xlink:href="#m9e9e29c42d" x="2071.470313" y="210.238125" style="stroke: #000000; stroke-width: 0.8"/>
      </g>
     </g>
     <g id="text_37">
      <!-- 3.6 -->
      <g transform="translate(2063.51875 224.836563) scale(0.1 -0.1)">
       <use xlink:href="#DejaVuSans-33"/>
       <use xlink:href="#DejaVuSans-2e" x="63.623047"/>
       <use xlink:href="#DejaVuSans-36" x="95.410156"/>
      </g>
     </g>
    </g>
    <g id="xtick_38">
     <g id="line2d_38">
      <g>
       <use xlink:href="#m9e9e29c42d" x="2125.720313" y="210.238125" style="stroke: #000000; stroke-width: 0.8"/>
      </g>
     </g>
     <g id="text_38">
      <!-- 3.7 -->
      <g transform="translate(2117.76875 224.836563) scale(0.1 -0.1)">
       <use xlink:href="#DejaVuSans-33"/>
       <use xlink:href="#DejaVuSans-2e" x="63.623047"/>
       <use xlink:href="#DejaVuSans-37" x="95.410156"/>
      </g>
     </g>
    </g>
    <g id="xtick_39">
     <g id="line2d_39">
      <g>
       <use xlink:href="#m9e9e29c42d" x="2179.970313" y="210.238125" style="stroke: #000000; stroke-width: 0.8"/>
      </g>
     </g>
     <g id="text_39">
      <!-- 3.8 -->
      <g transform="translate(2172.01875 224.836563) scale(0.1 -0.1)">
       <use xlink:href="#DejaVuSans-33"/>
       <use xlink:href="#DejaVuSans-2e" x="63.623047"/>
       <use xlink:href="#DejaVuSans-38" x="95.410156"/>
      </g>
     </g>
    </g>
    <g id="xtick_40">
     <g id="line2d_40">
      <g>
       <use xlink:href="#m9e9e29c42d" x="2234.220313" y="210.238125" style="stroke: #000000; stroke-width: 0.8"/>
      </g>
     </g>
     <g id="text_40">
      <!-- 3.9 -->
      <g transform="translate(2226.26875 224.836563) scale(0.1 -0.1)">
       <use xlink:href="#DejaVuSans-33"/>
       <use xlink:href="#DejaVuSans-2e" x="63.623047"/>
       <use xlink:href="#DejaVuSans-39" x="95.410156"/>
      </g>
     </g>
    </g>
    <g id="xtick_41">
     <g id="line2d_41">
      <g>
       <use xlink:href="#m9e9e29c42d" x="2288.470313" y="210.238125" style="stroke: #000000; stroke-width: 0.8"/>
      </g>
     </g>
     <g id="text_41">
      <!-- 4.0 -->
      <g transform="translate(2280.51875 224.836563) scale(0.1 -0.1)">
       <use xlink:href="#DejaVuSans-34"/>
       <use xlink:href="#DejaVuSans-2e" x="63.623047"/>
       <use xlink:href="#DejaVuSans-30" x="95.410156"/>
      </g>
     </g>
    </g>
    <g id="xtick_42">
     <g id="line2d_42">
      <g>
       <use xlink:href="#m9e9e29c42d" x="2342.720313" y="210.238125" style="stroke: #000000; stroke-width: 0.8"/>
      </g>
     </g>
     <g id="text_42">
      <!-- 4.1 -->
      <g transform="translate(2334.76875 224.836563) scale(0.1 -0.1)">
       <use xlink:href="#DejaVuSans-34"/>
       <use xlink:href="#DejaVuSans-2e" x="63.623047"/>
       <use xlink:href="#DejaVuSans-31" x="95.410156"/>
      </g>
     </g>
    </g>
    <g id="xtick_43">
     <g id="line2d_43">
      <g>
       <use xlink:href="#m9e9e29c42d" x="2396.970313" y="210.238125" style="stroke: #000000; stroke-width: 0.8"/>
      </g>
     </g>
     <g id="text_43">
      <!-- 4.2 -->
      <g transform="translate(2389.01875 224.836563) scale(0.1 -0.1)">
       <use xlink:href="#DejaVuSans-34"/>
       <use xlink:href="#DejaVuSans-2e" x="63.623047"/>
       <use xlink:href="#DejaVuSans-32" x="95.410156"/>
      </g>
     </g>
    </g>
    <g id="xtick_44">
     <g id="line2d_44">
      <g>
       <use xlink:href="#m9e9e29c42d" x="2451.220313" y="210.238125" style="stroke: #000000; stroke-width: 0.8"/>
      </g>
     </g>
     <g id="text_44">
      <!-- 4.3 -->
      <g transform="translate(2443.26875 224.836563) scale(0.1 -0.1)">
       <use xlink:href="#DejaVuSans-34"/>
       <use xlink:href="#DejaVuSans-2e" x="63.623047"/>
       <use xlink:href="#DejaVuSans-33" x="95.410156"/>
      </g>
     </g>
    </g>
    <g id="xtick_45">
     <g id="line2d_45">
      <g>
       <use xlink:href="#m9e9e29c42d" x="2505.470313" y="210.238125" style="stroke: #000000; stroke-width: 0.8"/>
      </g>
     </g>
     <g id="text_45">
      <!-- 4.4 -->
      <g transform="translate(2497.51875 224.836563) scale(0.1 -0.1)">
       <use xlink:href="#DejaVuSans-34"/>
       <use xlink:href="#DejaVuSans-2e" x="63.623047"/>
       <use xlink:href="#DejaVuSans-34" x="95.410156"/>
      </g>
     </g>
    </g>
    <g id="xtick_46">
     <g id="line2d_46">
      <g>
       <use xlink:href="#m9e9e29c42d" x="2559.720313" y="210.238125" style="stroke: #000000; stroke-width: 0.8"/>
      </g>
     </g>
     <g id="text_46">
      <!-- 4.5 -->
      <g transform="translate(2551.76875 224.836563) scale(0.1 -0.1)">
       <use xlink:href="#DejaVuSans-34"/>
       <use xlink:href="#DejaVuSans-2e" x="63.623047"/>
       <use xlink:href="#DejaVuSans-35" x="95.410156"/>
      </g>
     </g>
    </g>
    <g id="xtick_47">
     <g id="line2d_47">
      <g>
       <use xlink:href="#m9e9e29c42d" x="2613.970313" y="210.238125" style="stroke: #000000; stroke-width: 0.8"/>
      </g>
     </g>
     <g id="text_47">
      <!-- 4.6 -->
      <g transform="translate(2606.01875 224.836563) scale(0.1 -0.1)">
       <use xlink:href="#DejaVuSans-34"/>
       <use xlink:href="#DejaVuSans-2e" x="63.623047"/>
       <use xlink:href="#DejaVuSans-36" x="95.410156"/>
      </g>
     </g>
    </g>
    <g id="xtick_48">
     <g id="line2d_48">
      <g>
       <use xlink:href="#m9e9e29c42d" x="2668.220313" y="210.238125" style="stroke: #000000; stroke-width: 0.8"/>
      </g>
     </g>
     <g id="text_48">
      <!-- 4.7 -->
      <g transform="translate(2660.26875 224.836563) scale(0.1 -0.1)">
       <use xlink:href="#DejaVuSans-34"/>
       <use xlink:href="#DejaVuSans-2e" x="63.623047"/>
       <use xlink:href="#DejaVuSans-37" x="95.410156"/>
      </g>
     </g>
    </g>
    <g id="xtick_49">
     <g id="line2d_49">
      <g>
       <use xlink:href="#m9e9e29c42d" x="2722.470313" y="210.238125" style="stroke: #000000; stroke-width: 0.8"/>
      </g>
     </g>
     <g id="text_49">
      <!-- 4.8 -->
      <g transform="translate(2714.51875 224.836563) scale(0.1 -0.1)">
       <use xlink:href="#DejaVuSans-34"/>
       <use xlink:href="#DejaVuSans-2e" x="63.623047"/>
       <use xlink:href="#DejaVuSans-38" x="95.410156"/>
      </g>
     </g>
    </g>
    <g id="xtick_50">
     <g id="line2d_50">
      <g>
       <use xlink:href="#m9e9e29c42d" x="2776.720313" y="210.238125" style="stroke: #000000; stroke-width: 0.8"/>
      </g>
     </g>
     <g id="text_50">
      <!-- 4.9 -->
      <g transform="translate(2768.76875 224.836563) scale(0.1 -0.1)">
       <use xlink:href="#DejaVuSans-34"/>
       <use xlink:href="#DejaVuSans-2e" x="63.623047"/>
       <use xlink:href="#DejaVuSans-39" x="95.410156"/>
      </g>
     </g>
    </g>
    <g id="xtick_51">
     <g id="line2d_51">
      <g>
       <use xlink:href="#m9e9e29c42d" x="2830.970313" y="210.238125" style="stroke: #000000; stroke-width: 0.8"/>
      </g>
     </g>
     <g id="text_51">
      <!-- 5.0 -->
      <g transform="translate(2823.01875 224.836563) scale(0.1 -0.1)">
       <use xlink:href="#DejaVuSans-35"/>
       <use xlink:href="#DejaVuSans-2e" x="63.623047"/>
       <use xlink:href="#DejaVuSans-30" x="95.410156"/>
      </g>
     </g>
    </g>
    <g id="xtick_52">
     <g id="line2d_52">
      <g>
       <use xlink:href="#m9e9e29c42d" x="2885.220313" y="210.238125" style="stroke: #000000; stroke-width: 0.8"/>
      </g>
     </g>
     <g id="text_52">
      <!-- 5.1 -->
      <g transform="translate(2877.26875 224.836563) scale(0.1 -0.1)">
       <use xlink:href="#DejaVuSans-35"/>
       <use xlink:href="#DejaVuSans-2e" x="63.623047"/>
       <use xlink:href="#DejaVuSans-31" x="95.410156"/>
      </g>
     </g>
    </g>
    <g id="xtick_53">
     <g id="line2d_53">
      <g>
       <use xlink:href="#m9e9e29c42d" x="2939.470313" y="210.238125" style="stroke: #000000; stroke-width: 0.8"/>
      </g>
     </g>
     <g id="text_53">
      <!-- 5.2 -->
      <g transform="translate(2931.51875 224.836563) scale(0.1 -0.1)">
       <use xlink:href="#DejaVuSans-35"/>
       <use xlink:href="#DejaVuSans-2e" x="63.623047"/>
       <use xlink:href="#DejaVuSans-32" x="95.410156"/>
      </g>
     </g>
    </g>
    <g id="xtick_54">
     <g id="line2d_54">
      <g>
       <use xlink:href="#m9e9e29c42d" x="2993.720313" y="210.238125" style="stroke: #000000; stroke-width: 0.8"/>
      </g>
     </g>
     <g id="text_54">
      <!-- 5.3 -->
      <g transform="translate(2985.76875 224.836563) scale(0.1 -0.1)">
       <use xlink:href="#DejaVuSans-35"/>
       <use xlink:href="#DejaVuSans-2e" x="63.623047"/>
       <use xlink:href="#DejaVuSans-33" x="95.410156"/>
      </g>
     </g>
    </g>
    <g id="xtick_55">
     <g id="line2d_55">
      <g>
       <use xlink:href="#m9e9e29c42d" x="3047.970313" y="210.238125" style="stroke: #000000; stroke-width: 0.8"/>
      </g>
     </g>
     <g id="text_55">
      <!-- 5.4 -->
      <g transform="translate(3040.01875 224.836563) scale(0.1 -0.1)">
       <use xlink:href="#DejaVuSans-35"/>
       <use xlink:href="#DejaVuSans-2e" x="63.623047"/>
       <use xlink:href="#DejaVuSans-34" x="95.410156"/>
      </g>
     </g>
    </g>
    <g id="xtick_56">
     <g id="line2d_56">
      <g>
       <use xlink:href="#m9e9e29c42d" x="3102.220313" y="210.238125" style="stroke: #000000; stroke-width: 0.8"/>
      </g>
     </g>
     <g id="text_56">
      <!-- 5.5 -->
      <g transform="translate(3094.26875 224.836563) scale(0.1 -0.1)">
       <use xlink:href="#DejaVuSans-35"/>
       <use xlink:href="#DejaVuSans-2e" x="63.623047"/>
       <use xlink:href="#DejaVuSans-35" x="95.410156"/>
      </g>
     </g>
    </g>
    <g id="xtick_57">
     <g id="line2d_57">
      <g>
       <use xlink:href="#m9e9e29c42d" x="3156.470313" y="210.238125" style="stroke: #000000; stroke-width: 0.8"/>
      </g>
     </g>
     <g id="text_57">
      <!-- 5.6 -->
      <g transform="translate(3148.51875 224.836563) scale(0.1 -0.1)">
       <use xlink:href="#DejaVuSans-35"/>
       <use xlink:href="#DejaVuSans-2e" x="63.623047"/>
       <use xlink:href="#DejaVuSans-36" x="95.410156"/>
      </g>
     </g>
    </g>
    <g id="xtick_58">
     <g id="line2d_58">
      <g>
       <use xlink:href="#m9e9e29c42d" x="3210.720313" y="210.238125" style="stroke: #000000; stroke-width: 0.8"/>
      </g>
     </g>
     <g id="text_58">
      <!-- 5.7 -->
      <g transform="translate(3202.76875 224.836563) scale(0.1 -0.1)">
       <use xlink:href="#DejaVuSans-35"/>
       <use xlink:href="#DejaVuSans-2e" x="63.623047"/>
       <use xlink:href="#DejaVuSans-37" x="95.410156"/>
      </g>
     </g>
    </g>
    <g id="xtick_59">
     <g id="line2d_59">
      <g>
       <use xlink:href="#m9e9e29c42d" x="3264.970313" y="210.238125" style="stroke: #000000; stroke-width: 0.8"/>
      </g>
     </g>
     <g id="text_59">
      <!-- 5.8 -->
      <g transform="translate(3257.01875 224.836563) scale(0.1 -0.1)">
       <use xlink:href="#DejaVuSans-35"/>
       <use xlink:href="#DejaVuSans-2e" x="63.623047"/>
       <use xlink:href="#DejaVuSans-38" x="95.410156"/>
      </g>
     </g>
    </g>
    <g id="xtick_60">
     <g id="line2d_60">
      <g>
       <use xlink:href="#m9e9e29c42d" x="3319.220313" y="210.238125" style="stroke: #000000; stroke-width: 0.8"/>
      </g>
     </g>
     <g id="text_60">
      <!-- 5.9 -->
      <g transform="translate(3311.26875 224.836563) scale(0.1 -0.1)">
       <use xlink:href="#DejaVuSans-35"/>
       <use xlink:href="#DejaVuSans-2e" x="63.623047"/>
       <use xlink:href="#DejaVuSans-39" x="95.410156"/>
      </g>
     </g>
    </g>
    <g id="xtick_61">
     <g id="line2d_61">
      <g>
       <use xlink:href="#m9e9e29c42d" x="3373.470313" y="210.238125" style="stroke: #000000; stroke-width: 0.8"/>
      </g>
     </g>
     <g id="text_61">
      <!-- 6.0 -->
      <g transform="translate(3365.51875 224.836563) scale(0.1 -0.1)">
       <use xlink:href="#DejaVuSans-36"/>
       <use xlink:href="#DejaVuSans-2e" x="63.623047"/>
       <use xlink:href="#DejaVuSans-30" x="95.410156"/>
      </g>
     </g>
    </g>
    <g id="xtick_62">
     <g id="line2d_62">
      <g>
       <use xlink:href="#m9e9e29c42d" x="3427.720313" y="210.238125" style="stroke: #000000; stroke-width: 0.8"/>
      </g>
     </g>
     <g id="text_62">
      <!-- 6.1 -->
      <g transform="translate(3419.76875 224.836563) scale(0.1 -0.1)">
       <use xlink:href="#DejaVuSans-36"/>
       <use xlink:href="#DejaVuSans-2e" x="63.623047"/>
       <use xlink:href="#DejaVuSans-31" x="95.410156"/>
      </g>
     </g>
    </g>
    <g id="xtick_63">
     <g id="line2d_63">
      <g>
       <use xlink:href="#m9e9e29c42d" x="3481.970313" y="210.238125" style="stroke: #000000; stroke-width: 0.8"/>
      </g>
     </g>
     <g id="text_63">
      <!-- 6.2 -->
      <g transform="translate(3474.01875 224.836563) scale(0.1 -0.1)">
       <use xlink:href="#DejaVuSans-36"/>
       <use xlink:href="#DejaVuSans-2e" x="63.623047"/>
       <use xlink:href="#DejaVuSans-32" x="95.410156"/>
      </g>
     </g>
    </g>
    <g id="xtick_64">
     <g id="line2d_64">
      <g>
       <use xlink:href="#m9e9e29c42d" x="3536.220313" y="210.238125" style="stroke: #000000; stroke-width: 0.8"/>
      </g>
     </g>
     <g id="text_64">
      <!-- 6.3 -->
      <g transform="translate(3528.26875 224.836563) scale(0.1 -0.1)">
       <use xlink:href="#DejaVuSans-36"/>
       <use xlink:href="#DejaVuSans-2e" x="63.623047"/>
       <use xlink:href="#DejaVuSans-33" x="95.410156"/>
      </g>
     </g>
    </g>
    <g id="xtick_65">
     <g id="line2d_65">
      <g>
       <use xlink:href="#m9e9e29c42d" x="3590.470313" y="210.238125" style="stroke: #000000; stroke-width: 0.8"/>
      </g>
     </g>
     <g id="text_65">
      <!-- 6.4 -->
      <g transform="translate(3582.51875 224.836563) scale(0.1 -0.1)">
       <use xlink:href="#DejaVuSans-36"/>
       <use xlink:href="#DejaVuSans-2e" x="63.623047"/>
       <use xlink:href="#DejaVuSans-34" x="95.410156"/>
      </g>
     </g>
    </g>
    <g id="xtick_66">
     <g id="line2d_66">
      <g>
       <use xlink:href="#m9e9e29c42d" x="3644.720313" y="210.238125" style="stroke: #000000; stroke-width: 0.8"/>
      </g>
     </g>
     <g id="text_66">
      <!-- 6.5 -->
      <g transform="translate(3636.76875 224.836563) scale(0.1 -0.1)">
       <use xlink:href="#DejaVuSans-36"/>
       <use xlink:href="#DejaVuSans-2e" x="63.623047"/>
       <use xlink:href="#DejaVuSans-35" x="95.410156"/>
      </g>
     </g>
    </g>
    <g id="xtick_67">
     <g id="line2d_67">
      <g>
       <use xlink:href="#m9e9e29c42d" x="3698.970313" y="210.238125" style="stroke: #000000; stroke-width: 0.8"/>
      </g>
     </g>
     <g id="text_67">
      <!-- 6.6 -->
      <g transform="translate(3691.01875 224.836563) scale(0.1 -0.1)">
       <use xlink:href="#DejaVuSans-36"/>
       <use xlink:href="#DejaVuSans-2e" x="63.623047"/>
       <use xlink:href="#DejaVuSans-36" x="95.410156"/>
      </g>
     </g>
    </g>
    <g id="xtick_68">
     <g id="line2d_68">
      <g>
       <use xlink:href="#m9e9e29c42d" x="3753.220313" y="210.238125" style="stroke: #000000; stroke-width: 0.8"/>
      </g>
     </g>
     <g id="text_68">
      <!-- 6.7 -->
      <g transform="translate(3745.26875 224.836563) scale(0.1 -0.1)">
       <use xlink:href="#DejaVuSans-36"/>
       <use xlink:href="#DejaVuSans-2e" x="63.623047"/>
       <use xlink:href="#DejaVuSans-37" x="95.410156"/>
      </g>
     </g>
    </g>
    <g id="xtick_69">
     <g id="line2d_69">
      <g>
       <use xlink:href="#m9e9e29c42d" x="3807.470313" y="210.238125" style="stroke: #000000; stroke-width: 0.8"/>
      </g>
     </g>
     <g id="text_69">
      <!-- 6.8 -->
      <g transform="translate(3799.51875 224.836563) scale(0.1 -0.1)">
       <use xlink:href="#DejaVuSans-36"/>
       <use xlink:href="#DejaVuSans-2e" x="63.623047"/>
       <use xlink:href="#DejaVuSans-38" x="95.410156"/>
      </g>
     </g>
    </g>
    <g id="xtick_70">
     <g id="line2d_70">
      <g>
       <use xlink:href="#m9e9e29c42d" x="3861.720313" y="210.238125" style="stroke: #000000; stroke-width: 0.8"/>
      </g>
     </g>
     <g id="text_70">
      <!-- 6.9 -->
      <g transform="translate(3853.76875 224.836563) scale(0.1 -0.1)">
       <use xlink:href="#DejaVuSans-36"/>
       <use xlink:href="#DejaVuSans-2e" x="63.623047"/>
       <use xlink:href="#DejaVuSans-39" x="95.410156"/>
      </g>
     </g>
    </g>
    <g id="xtick_71">
     <g id="line2d_71">
      <g>
       <use xlink:href="#m9e9e29c42d" x="3915.970313" y="210.238125" style="stroke: #000000; stroke-width: 0.8"/>
      </g>
     </g>
     <g id="text_71">
      <!-- 7.0 -->
      <g transform="translate(3908.01875 224.836563) scale(0.1 -0.1)">
       <use xlink:href="#DejaVuSans-37"/>
       <use xlink:href="#DejaVuSans-2e" x="63.623047"/>
       <use xlink:href="#DejaVuSans-30" x="95.410156"/>
      </g>
     </g>
    </g>
    <g id="text_72">
     <!-- Bit duration -->
     <g transform="translate(1987.811719 238.514688) scale(0.1 -0.1)">
      <defs>
       <path id="DejaVuSans-42" d="M 1259 2228 
L 1259 519 
L 2272 519 
Q 2781 519 3026 730 
Q 3272 941 3272 1375 
Q 3272 1813 3026 2020 
Q 2781 2228 2272 2228 
L 1259 2228 
z
M 1259 4147 
L 1259 2741 
L 2194 2741 
Q 2656 2741 2882 2914 
Q 3109 3088 3109 3444 
Q 3109 3797 2882 3972 
Q 2656 4147 2194 4147 
L 1259 4147 
z
M 628 4666 
L 2241 4666 
Q 2963 4666 3353 4366 
Q 3744 4066 3744 3513 
Q 3744 3084 3544 2831 
Q 3344 2578 2956 2516 
Q 3422 2416 3680 2098 
Q 3938 1781 3938 1306 
Q 3938 681 3513 340 
Q 3088 0 2303 0 
L 628 0 
L 628 4666 
z
" transform="scale(0.015625)"/>
       <path id="DejaVuSans-69" d="M 603 3500 
L 1178 3500 
L 1178 0 
L 603 0 
L 603 3500 
z
M 603 4863 
L 1178 4863 
L 1178 4134 
L 603 4134 
L 603 4863 
z
" transform="scale(0.015625)"/>
       <path id="DejaVuSans-74" d="M 1172 4494 
L 1172 3500 
L 2356 3500 
L 2356 3053 
L 1172 3053 
L 1172 1153 
Q 1172 725 1289 603 
Q 1406 481 1766 481 
L 2356 481 
L 2356 0 
L 1766 0 
Q 1100 0 847 248 
Q 594 497 594 1153 
L 594 3053 
L 172 3053 
L 172 3500 
L 594 3500 
L 594 4494 
L 1172 4494 
z
" transform="scale(0.015625)"/>
       <path id="DejaVuSans-20" transform="scale(0.015625)"/>
       <path id="DejaVuSans-64" d="M 2906 2969 
L 2906 4863 
L 3481 4863 
L 3481 0 
L 2906 0 
L 2906 525 
Q 2725 213 2448 61 
Q 2172 -91 1784 -91 
Q 1150 -91 751 415 
Q 353 922 353 1747 
Q 353 2572 751 3078 
Q 1150 3584 1784 3584 
Q 2172 3584 2448 3432 
Q 2725 3281 2906 2969 
z
M 947 1747 
Q 947 1113 1208 752 
Q 1469 391 1925 391 
Q 2381 391 2643 752 
Q 2906 1113 2906 1747 
Q 2906 2381 2643 2742 
Q 2381 3103 1925 3103 
Q 1469 3103 1208 2742 
Q 947 2381 947 1747 
z
" transform="scale(0.015625)"/>
       <path id="DejaVuSans-75" d="M 544 1381 
L 544 3500 
L 1119 3500 
L 1119 1403 
Q 1119 906 1312 657 
Q 1506 409 1894 409 
Q 2359 409 2629 706 
Q 2900 1003 2900 1516 
L 2900 3500 
L 3475 3500 
L 3475 0 
L 2900 0 
L 2900 538 
Q 2691 219 2414 64 
Q 2138 -91 1772 -91 
Q 1169 -91 856 284 
Q 544 659 544 1381 
z
M 1991 3584 
L 1991 3584 
z
" transform="scale(0.015625)"/>
       <path id="DejaVuSans-72" d="M 2631 2963 
Q 2534 3019 2420 3045 
Q 2306 3072 2169 3072 
Q 1681 3072 1420 2755 
Q 1159 2438 1159 1844 
L 1159 0 
L 581 0 
L 581 3500 
L 1159 3500 
L 1159 2956 
Q 1341 3275 1631 3429 
Q 1922 3584 2338 3584 
Q 2397 3584 2469 3576 
Q 2541 3569 2628 3553 
L 2631 2963 
z
" transform="scale(0.015625)"/>
       <path id="DejaVuSans-61" d="M 2194 1759 
Q 1497 1759 1228 1600 
Q 959 1441 959 1056 
Q 959 750 1161 570 
Q 1363 391 1709 391 
Q 2188 391 2477 730 
Q 2766 1069 2766 1631 
L 2766 1759 
L 2194 1759 
z
M 3341 1997 
L 3341 0 
L 2766 0 
L 2766 531 
Q 2569 213 2275 61 
Q 1981 -91 1556 -91 
Q 1019 -91 701 211 
Q 384 513 384 1019 
Q 384 1609 779 1909 
Q 1175 2209 1959 2209 
L 2766 2209 
L 2766 2266 
Q 2766 2663 2505 2880 
Q 2244 3097 1772 3097 
Q 1472 3097 1187 3025 
Q 903 2953 641 2809 
L 641 3341 
Q 956 3463 1253 3523 
Q 1550 3584 1831 3584 
Q 2591 3584 2966 3190 
Q 3341 2797 3341 1997 
z
" transform="scale(0.015625)"/>
       <path id="DejaVuSans-6f" d="M 1959 3097 
Q 1497 3097 1228 2736 
Q 959 2375 959 1747 
Q 959 1119 1226 758 
Q 1494 397 1959 397 
Q 2419 397 2687 759 
Q 2956 1122 2956 1747 
Q 2956 2369 2687 2733 
Q 2419 3097 1959 3097 
z
M 1959 3584 
Q 2709 3584 3137 3096 
Q 3566 2609 3566 1747 
Q 3566 888 3137 398 
Q 2709 -91 1959 -91 
Q 1206 -91 779 398 
Q 353 888 353 1747 
Q 353 2609 779 3096 
Q 1206 3584 1959 3584 
z
" transform="scale(0.015625)"/>
       <path id="DejaVuSans-6e" d="M 3513 2113 
L 3513 0 
L 2938 0 
L 2938 2094 
Q 2938 2591 2744 2837 
Q 2550 3084 2163 3084 
Q 1697 3084 1428 2787 
Q 1159 2491 1159 1978 
L 1159 0 
L 581 0 
L 581 3500 
L 1159 3500 
L 1159 2956 
Q 1366 3272 1645 3428 
Q 1925 3584 2291 3584 
Q 2894 3584 3203 3211 
Q 3513 2838 3513 2113 
z
" transform="scale(0.015625)"/>
      </defs>
      <use xlink:href="#DejaVuSans-42"/>
      <use xlink:href="#DejaVuSans-69" x="68.603516"/>
      <use xlink:href="#DejaVuSans-74" x="96.386719"/>
      <use xlink:href="#DejaVuSans-20" x="135.595703"/>
      <use xlink:href="#DejaVuSans-64" x="167.382812"/>
      <use xlink:href="#DejaVuSans-75" x="230.859375"/>
      <use xlink:href="#DejaVuSans-72" x="294.238281"/>
      <use xlink:href="#DejaVuSans-61" x="335.351562"/>
      <use xlink:href="#DejaVuSans-74" x="396.630859"/>
      <use xlink:href="#DejaVuSans-69" x="435.839844"/>
      <use xlink:href="#DejaVuSans-6f" x="463.623047"/>
      <use xlink:href="#DejaVuSans-6e" x="524.804688"/>
     </g>
    </g>
   </g>
   <g id="matplotlib.axis_2">
    <g id="ytick_1">
     <g id="line2d_72">
      <defs>
       <path id="m942c8f4dfc" d="M 0 0 
L -3.5 0 
" style="stroke: #000000; stroke-width: 0.8"/>
      </defs>
      <g>
       <use xlink:href="#m942c8f4dfc" x="64.220312" y="193.606125" style="stroke: #000000; stroke-width: 0.8"/>
      </g>
     </g>
     <g id="text_73">
      <!-- −2 -->
      <g transform="translate(42.478125 197.405344) scale(0.1 -0.1)">
       <defs>
        <path id="DejaVuSans-2212" d="M 678 2272 
L 4684 2272 
L 4684 1741 
L 678 1741 
L 678 2272 
z
" transform="scale(0.015625)"/>
       </defs>
       <use xlink:href="#DejaVuSans-2212"/>
       <use xlink:href="#DejaVuSans-32" x="83.789062"/>
      </g>
     </g>
    </g>
    <g id="ytick_2">
     <g id="line2d_73">
      <g>
       <use xlink:href="#m942c8f4dfc" x="64.220312" y="160.342125" style="stroke: #000000; stroke-width: 0.8"/>
      </g>
     </g>
     <g id="text_74">
      <!-- −1 -->
      <g transform="translate(42.478125 164.141344) scale(0.1 -0.1)">
       <use xlink:href="#DejaVuSans-2212"/>
       <use xlink:href="#DejaVuSans-31" x="83.789062"/>
      </g>
     </g>
    </g>
    <g id="ytick_3">
     <g id="line2d_74">
      <g>
       <use xlink:href="#m942c8f4dfc" x="64.220312" y="127.078125" style="stroke: #000000; stroke-width: 0.8"/>
      </g>
     </g>
     <g id="text_75">
      <!-- 0 -->
      <g transform="translate(50.857812 130.877344) scale(0.1 -0.1)">
       <use xlink:href="#DejaVuSans-30"/>
      </g>
     </g>
    </g>
    <g id="ytick_4">
     <g id="line2d_75">
      <g>
       <use xlink:href="#m942c8f4dfc" x="64.220312" y="93.814125" style="stroke: #000000; stroke-width: 0.8"/>
      </g>
     </g>
     <g id="text_76">
      <!-- 1 -->
      <g transform="translate(50.857812 97.613344) scale(0.1 -0.1)">
       <use xlink:href="#DejaVuSans-31"/>
      </g>
     </g>
    </g>
    <g id="ytick_5">
     <g id="line2d_76">
      <g>
       <use xlink:href="#m942c8f4dfc" x="64.220312" y="60.550125" style="stroke: #000000; stroke-width: 0.8"/>
      </g>
     </g>
     <g id="text_77">
      <!-- 2 -->
      <g transform="translate(50.857812 64.349344) scale(0.1 -0.1)">
       <use xlink:href="#DejaVuSans-32"/>
      </g>
     </g>
    </g>
    <g id="text_78">
     <!-- Signal -->
     <g transform="translate(36.398437 142.4375) rotate(-90) scale(0.1 -0.1)">
      <defs>
       <path id="DejaVuSans-53" d="M 3425 4513 
L 3425 3897 
Q 3066 4069 2747 4153 
Q 2428 4238 2131 4238 
Q 1616 4238 1336 4038 
Q 1056 3838 1056 3469 
Q 1056 3159 1242 3001 
Q 1428 2844 1947 2747 
L 2328 2669 
Q 3034 2534 3370 2195 
Q 3706 1856 3706 1288 
Q 3706 609 3251 259 
Q 2797 -91 1919 -91 
Q 1588 -91 1214 -16 
Q 841 59 441 206 
L 441 856 
Q 825 641 1194 531 
Q 1563 422 1919 422 
Q 2459 422 2753 634 
Q 3047 847 3047 1241 
Q 3047 1584 2836 1778 
Q 2625 1972 2144 2069 
L 1759 2144 
Q 1053 2284 737 2584 
Q 422 2884 422 3419 
Q 422 4038 858 4394 
Q 1294 4750 2059 4750 
Q 2388 4750 2728 4690 
Q 3069 4631 3425 4513 
z
" transform="scale(0.015625)"/>
       <path id="DejaVuSans-67" d="M 2906 1791 
Q 2906 2416 2648 2759 
Q 2391 3103 1925 3103 
Q 1463 3103 1205 2759 
Q 947 2416 947 1791 
Q 947 1169 1205 825 
Q 1463 481 1925 481 
Q 2391 481 2648 825 
Q 2906 1169 2906 1791 
z
M 3481 434 
Q 3481 -459 3084 -895 
Q 2688 -1331 1869 -1331 
Q 1566 -1331 1297 -1286 
Q 1028 -1241 775 -1147 
L 775 -588 
Q 1028 -725 1275 -790 
Q 1522 -856 1778 -856 
Q 2344 -856 2625 -561 
Q 2906 -266 2906 331 
L 2906 616 
Q 2728 306 2450 153 
Q 2172 0 1784 0 
Q 1141 0 747 490 
Q 353 981 353 1791 
Q 353 2603 747 3093 
Q 1141 3584 1784 3584 
Q 2172 3584 2450 3431 
Q 2728 3278 2906 2969 
L 2906 3500 
L 3481 3500 
L 3481 434 
z
" transform="scale(0.015625)"/>
       <path id="DejaVuSans-6c" d="M 603 4863 
L 1178 4863 
L 1178 0 
L 603 0 
L 603 4863 
z
" transform="scale(0.015625)"/>
      </defs>
      <use xlink:href="#DejaVuSans-53"/>
      <use xlink:href="#DejaVuSans-69" x="63.476562"/>
      <use xlink:href="#DejaVuSans-67" x="91.259766"/>
      <use xlink:href="#DejaVuSans-6e" x="154.736328"/>
      <use xlink:href="#DejaVuSans-61" x="218.115234"/>
      <use xlink:href="#DejaVuSans-6c" x="279.394531"/>
     </g>
    </g>
   </g>
   <g id="line2d_77">
    <path d="M 118.470312 127.078125 
L 3915.970313 127.078125 
" clip-path="url(#pbf4bbc2bc2)" style="fill: none; stroke-dasharray: 5.55,2.4; stroke-dashoffset: 0; stroke: #808080; stroke-width: 1.5"/>
   </g>
   <g id="line2d_78">
    <path d="M 118.470312 171.297557 
L 123.895312 147.715244 
L 129.320312 141.939416 
L 134.745312 160.33484 
L 140.170312 142.539498 
L 145.595312 117.536812 
L 151.020312 82.456698 
L 156.445312 101.35035 
L 161.870312 107.331118 
L 167.295312 158.275666 
L 172.720312 137.101001 
L 178.145312 147.845439 
L 183.570312 162.115229 
L 188.995312 140.482353 
L 194.420312 132.106544 
L 199.845312 103.287047 
L 205.270312 132.629787 
L 210.695312 87.350098 
L 216.120312 115.626561 
L 221.545312 93.788811 
L 226.970312 157.209588 
L 232.395312 158.340597 
L 237.820312 165.976248 
L 243.245312 143.844079 
L 248.670312 139.428716 
L 254.095312 97.200101 
L 259.520312 75.23199 
L 264.945312 86.78328 
L 270.370312 102.129925 
L 275.795312 134.474642 
L 281.220312 133.41485 
L 286.645312 155.783826 
L 292.070312 189.843834 
L 297.495312 121.43206 
L 302.920313 129.791436 
L 308.345312 85.334533 
L 313.770312 74.527591 
L 319.195312 95.674747 
L 324.620312 103.490356 
L 330.045313 113.819993 
L 335.470312 133.450776 
L 340.895312 178.308943 
L 346.320312 120.537558 
L 351.745312 147.423186 
L 357.170312 136.71261 
L 362.595312 101.2305 
L 368.020312 140.015559 
L 373.445312 82.610344 
L 378.870312 103.263795 
L 384.295312 100.195657 
L 389.720312 133.997336 
L 395.145312 162.312152 
L 400.570312 192.117894 
L 405.995313 154.092052 
L 411.420313 126.961136 
L 416.845312 105.424957 
L 422.270312 72.338487 
L 427.695312 97.339577 
L 433.120312 112.248668 
L 438.545312 115.894136 
L 443.970312 116.372539 
L 449.395312 149.830468 
L 454.820312 148.982536 
L 460.245312 179.059079 
L 465.670312 126.35746 
L 471.095312 125.704921 
L 476.520312 85.828437 
L 481.945312 75.620879 
L 487.370313 111.624802 
L 492.795312 100.443308 
L 498.220312 168.377077 
L 503.645312 128.097667 
L 509.070312 178.738082 
L 514.495312 146.810629 
L 519.920312 147.18771 
L 525.345312 55.126197 
L 530.770313 44.346665 
L 536.195312 108.040572 
L 541.620312 107.037031 
L 547.045313 120.563836 
L 552.470312 115.66701 
L 557.895313 173.426885 
L 563.320312 156.859384 
L 568.745312 133.247034 
L 574.170312 102.797966 
L 579.595312 120.768111 
L 585.020313 128.894572 
L 590.445312 90.755966 
L 595.870312 122.888025 
L 601.295312 123.704856 
L 606.720312 161.588261 
L 612.145313 191.740015 
L 617.570312 158.024921 
L 622.995312 165.571958 
L 628.420312 167.919232 
L 633.845312 117.674326 
L 639.270312 90.308831 
L 644.695312 90.779317 
L 650.120312 106.899551 
L 655.545313 111.846406 
L 660.970312 148.301921 
L 666.395312 176.527556 
L 671.820312 177.824187 
L 677.245312 118.155622 
L 682.670313 94.265817 
L 688.095312 123.650735 
L 693.520313 88.98223 
L 698.945312 108.182576 
L 704.370313 79.15468 
L 709.795313 126.728786 
L 715.220312 167.598766 
L 720.645313 146.283095 
L 726.070312 181.523443 
L 731.495312 182.041563 
L 736.920312 144.906598 
L 742.345312 125.64418 
L 747.770312 139.891451 
L 753.195312 82.988656 
L 758.620312 82.943982 
L 764.045312 97.497614 
L 769.470312 128.525674 
L 774.895312 168.181485 
L 780.320312 195.128585 
L 785.745312 151.746308 
L 791.170313 73.246362 
L 796.595312 138.226388 
L 802.020312 155.973298 
L 807.445312 104.465557 
L 812.870312 122.703244 
L 818.295313 132.649812 
L 823.720312 125.094759 
L 829.145313 180.900042 
L 834.570312 136.62945 
L 839.995313 171.318181 
L 845.420313 107.90103 
L 850.845312 85.588902 
L 856.270313 70.060469 
L 861.695312 87.95364 
L 867.120312 125.769952 
L 872.545312 140.431326 
L 877.970312 176.219831 
L 883.395312 180.828059 
L 888.820312 145.213525 
L 894.245312 160.273801 
L 899.670312 137.749516 
L 905.095312 91.466053 
L 910.520312 86.693799 
L 915.945312 123.011734 
L 921.370312 105.665922 
L 926.795313 104.766663 
L 932.220312 134.410209 
L 937.645312 165.846885 
L 943.070312 142.098684 
L 948.495312 141.921087 
L 953.920313 154.852767 
L 959.345312 96.928035 
L 964.770313 73.883168 
L 975.620313 115.47634 
L 981.045313 152.834773 
L 986.470312 138.241291 
L 991.895313 150.768879 
L 997.320312 170.77488 
L 1002.745312 192.191108 
L 1008.170312 113.313349 
L 1013.595312 128.919154 
L 1019.020312 126.343656 
L 1024.445312 91.993952 
L 1029.870312 115.365671 
L 1035.295312 110.416686 
L 1040.720313 122.095078 
L 1046.145312 203.103529 
L 1051.570312 154.157283 
L 1056.995312 150.040863 
L 1062.420312 125.798625 
L 1067.845313 134.958034 
L 1073.270312 109.96576 
L 1078.695312 106.355218 
L 1084.120312 107.007559 
L 1089.545312 111.550057 
L 1094.970313 127.015289 
L 1100.395313 135.665293 
L 1105.820312 146.553898 
L 1111.245313 159.245178 
L 1116.670312 142.311939 
L 1122.095313 72.964516 
L 1127.520313 120.850971 
L 1132.945312 113.593864 
L 1138.370312 90.384241 
L 1143.795312 147.946262 
L 1149.220313 107.575774 
L 1154.645312 190.776357 
L 1160.070312 106.902977 
L 1165.495312 141.354136 
L 1170.920312 129.014223 
L 1176.345313 90.345422 
L 1181.770312 62.283978 
L 1187.195312 89.347668 
L 1192.620313 125.768422 
L 1198.045312 105.627868 
L 1203.470313 121.145956 
L 1208.895312 172.784291 
L 1214.320312 193.221593 
L 1219.745312 103.510481 
L 1225.170312 141.234319 
L 1230.595313 143.892146 
L 1236.020312 112.235728 
L 1241.445312 71.668484 
L 1246.870313 60.861908 
L 1252.295312 89.219901 
L 1257.720313 78.154897 
L 1263.145312 88.897839 
L 1268.570312 168.633077 
L 1273.995312 157.663309 
L 1279.420312 136.674456 
L 1284.845313 107.518228 
L 1290.270313 101.436105 
L 1295.695312 73.344956 
L 1301.120313 75.910509 
L 1306.545312 109.856887 
L 1311.970313 91.965911 
L 1317.395312 154.227503 
L 1322.820312 170.217142 
L 1328.245313 193.786416 
L 1333.670312 154.574946 
L 1339.095313 138.865423 
L 1344.520312 114.290479 
L 1349.945312 100.382335 
L 1355.370312 51.360845 
L 1360.795312 88.492118 
L 1366.220313 109.540745 
L 1371.645312 125.214742 
L 1377.070312 172.581913 
L 1382.495313 185.735231 
L 1387.920312 178.889765 
L 1393.345313 90.652847 
L 1398.770312 123.594852 
L 1404.195312 114.668158 
L 1409.620312 113.200185 
L 1415.045312 102.109368 
L 1420.470313 109.322168 
L 1425.895313 147.13023 
L 1431.320312 131.208582 
L 1436.745313 143.645526 
L 1442.170312 139.89857 
L 1447.595313 140.954336 
L 1453.020312 84.632463 
L 1458.445312 104.991727 
L 1463.870313 88.177873 
L 1469.295312 122.680325 
L 1474.720313 37.534963 
L 1480.145312 183.839715 
L 1485.570312 141.095575 
L 1490.995312 169.714057 
L 1496.420312 141.396381 
L 1501.845313 149.520315 
L 1507.270312 89.027269 
L 1512.695312 153.516519 
L 1518.120313 86.528777 
L 1523.545312 112.312934 
L 1528.970313 116.317421 
L 1534.395312 136.508669 
L 1539.820312 147.436225 
L 1545.245312 142.854375 
L 1550.670312 185.360611 
L 1556.095313 95.266065 
L 1561.520313 116.724339 
L 1566.945312 90.301047 
L 1572.370313 95.205425 
L 1583.220313 116.129113 
L 1588.645312 164.880831 
L 1594.070312 128.804693 
L 1599.495313 189.342479 
L 1604.920312 150.105561 
L 1610.345313 122.251818 
L 1615.770312 124.007492 
L 1621.195312 114.303186 
L 1626.620312 101.089993 
L 1632.045312 136.903911 
L 1637.470313 104.764667 
L 1642.895312 122.997065 
L 1648.320312 158.722601 
L 1653.745313 162.260161 
L 1659.170312 173.982228 
L 1664.595313 161.272186 
L 1670.020312 129.544983 
L 1675.445312 112.038706 
L 1680.870312 83.460672 
L 1686.295312 128.838522 
L 1691.720313 109.200022 
L 1697.145313 131.37457 
L 1702.570312 154.274705 
L 1707.995313 182.059392 
L 1713.420312 155.358878 
L 1718.845313 156.839958 
L 1724.270312 147.112899 
L 1729.695312 85.688229 
L 1735.120313 111.771163 
L 1740.545312 117.418559 
L 1745.970313 168.401094 
L 1751.395312 140.551342 
L 1756.820312 122.067303 
L 1762.245312 119.4936 
L 1767.670312 85.687597 
L 1773.095313 134.326284 
L 1778.520312 99.44918 
L 1783.945312 100.801062 
L 1789.370313 125.39826 
L 1794.795312 152.584062 
L 1800.220313 146.978047 
L 1805.645312 142.619864 
L 1811.070312 119.170041 
L 1816.495312 138.530687 
L 1821.920312 82.351983 
L 1827.345313 93.655023 
L 1832.770313 73.892448 
L 1838.195312 119.097892 
L 1843.620313 96.717507 
L 1849.045312 125.327607 
L 1854.470313 164.944865 
L 1859.895312 141.23871 
L 1865.320312 156.813047 
L 1870.745313 133.51604 
L 1876.170312 124.747017 
L 1881.595313 59.025769 
L 1887.020312 56.484366 
L 1892.445312 126.248088 
L 1897.870312 95.475861 
L 1903.295312 183.802925 
L 1908.720313 110.045394 
L 1914.145312 138.963718 
L 1919.570312 123.950245 
L 1924.995313 136.236236 
L 1930.420312 85.936012 
L 1935.845313 109.345186 
L 1941.270312 104.213416 
L 1946.695312 134.183515 
L 1952.120312 134.837419 
L 1957.545312 146.806039 
L 1962.970313 157.692182 
L 1968.395313 153.175795 
L 1973.820312 151.597751 
L 1979.245313 147.6241 
L 1984.670312 105.621747 
L 1990.095313 111.704635 
L 1995.520312 58.069695 
L 2000.945312 79.923445 
L 2006.370313 133.908521 
L 2011.795312 143.0985 
L 2017.220313 159.782259 
L 2022.645312 165.682061 
L 2028.070312 191.27545 
L 2033.495312 104.087911 
L 2038.920312 119.387322 
L 2044.345313 60.283514 
L 2049.770312 110.75741 
L 2055.195312 126.30976 
L 2060.620313 145.741025 
L 2066.045312 137.423362 
L 2071.470313 162.095969 
L 2076.895312 182.81678 
L 2082.320312 139.26163 
L 2087.745312 126.773094 
L 2093.170312 117.156538 
L 2098.595313 77.375023 
L 2104.020313 67.883274 
L 2109.445312 97.051677 
L 2114.870313 103.213999 
L 2120.295312 156.725763 
L 2125.720313 173.71269 
L 2131.145312 133.182402 
L 2136.570312 148.705247 
L 2141.995313 80.480683 
L 2147.420312 80.001449 
L 2152.845313 78.460594 
L 2158.270312 68.501119 
L 2163.695312 115.792082 
L 2169.120313 97.103336 
L 2174.545312 133.119267 
L 2179.970313 195.43142 
L 2185.395313 170.374281 
L 2190.820312 121.312243 
L 2196.245313 126.13376 
L 2201.670312 100.701336 
L 2207.095313 134.382434 
L 2212.520312 98.099626 
L 2217.945312 111.034598 
L 2223.370313 136.555504 
L 2228.795313 127.086241 
L 2234.220313 163.893722 
L 2239.645313 138.82534 
L 2245.070312 141.545936 
L 2250.495313 147.370695 
L 2255.920312 103.680959 
L 2261.345313 70.601209 
L 2266.770313 82.572689 
L 2272.195312 107.630327 
L 2277.620313 136.654099 
L 2283.045313 149.099226 
L 2288.470313 135.532071 
L 2293.895312 103.013085 
L 2299.320312 76.094858 
L 2304.745313 101.532803 
L 2310.170312 116.422402 
L 2315.595313 134.026176 
L 2321.020312 174.828863 
L 2326.445313 164.773189 
L 2331.870313 181.102454 
L 2337.295312 173.971916 
L 2342.720313 153.659221 
L 2348.145313 78.178748 
L 2353.570312 103.904959 
L 2358.995313 87.701133 
L 2364.420312 102.617143 
L 2369.845313 153.937109 
L 2375.270313 134.202708 
L 2380.695312 155.95284 
L 2386.120312 164.635643 
L 2391.545313 181.840815 
L 2396.970313 125.232006 
L 2402.395313 130.864466 
L 2407.820312 123.507434 
L 2413.245313 94.212162 
L 2418.670313 110.960952 
L 2424.095313 122.925015 
L 2429.520312 167.476521 
L 2434.945312 186.80234 
L 2440.370313 188.632059 
L 2445.795312 158.898135 
L 2451.220313 166.960064 
L 2456.645312 128.304569 
L 2462.070313 118.159548 
L 2467.495313 54.440626 
L 2472.920312 93.933077 
L 2478.345313 121.106805 
L 2483.770313 142.058634 
L 2489.195312 155.042205 
L 2494.620313 171.211902 
L 2500.045312 130.215685 
L 2505.470313 114.121764 
L 2510.895313 119.066624 
L 2516.320312 35.45247 
L 2521.745312 103.394689 
L 2527.170313 86.397085 
L 2532.595313 120.187421 
L 2538.020313 148.109588 
L 2543.445312 170.411271 
L 2548.870313 168.624562 
L 2554.295313 162.789956 
L 2559.720313 105.365415 
L 2565.145312 153.301334 
L 2570.570312 70.585375 
L 2575.995313 90.442952 
L 2581.420312 79.168984 
L 2586.845313 71.738871 
L 2592.270312 153.043637 
L 2597.695313 137.01997 
L 2603.120313 159.650699 
L 2608.545312 161.77281 
L 2613.970313 130.838421 
L 2619.395313 159.347698 
L 2624.820312 106.514985 
L 2630.245313 55.670463 
L 2635.670312 144.801949 
L 2641.095313 106.04114 
L 2646.520313 102.854748 
L 2651.945312 141.367308 
L 2657.370312 136.80708 
L 2662.795313 162.711952 
L 2668.220313 150.604821 
L 2673.645313 117.620205 
L 2679.070312 89.303826 
L 2684.495313 102.440046 
L 2689.920313 83.611491 
L 2695.345313 118.182799 
L 2700.770312 114.755742 
L 2706.195312 141.55352 
L 2711.620313 158.650817 
L 2717.045312 91.90211 
L 2722.470313 134.203906 
L 2727.895312 108.645245 
L 2733.320313 96.231886 
L 2738.745313 85.698807 
L 2744.170312 88.140151 
L 2749.595313 135.280429 
L 2755.020313 138.425207 
L 2760.445312 181.72928 
L 2765.870313 148.105696 
L 2771.295312 155.374845 
L 2776.720313 181.076807 
L 2782.145313 123.148349 
L 2787.570312 114.812491 
L 2792.995312 67.30122 
L 2798.420313 117.3189 
L 2803.845313 140.112158 
L 2809.270313 148.500607 
L 2814.695312 139.919958 
L 2820.120313 138.10248 
L 2825.545313 136.127696 
L 2830.970313 123.696507 
L 2836.395312 106.709646 
L 2841.820312 133.677736 
L 2847.245313 80.280866 
L 2852.670312 125.565012 
L 2858.095313 110.571231 
L 2863.520312 105.444184 
L 2868.945313 137.834804 
L 2874.370313 175.113869 
L 2879.795312 134.53954 
L 2885.220313 137.701316 
L 2890.645313 121.023345 
L 2896.070312 107.365779 
L 2901.495313 95.667595 
L 2906.920312 84.738309 
L 2912.345313 104.984276 
L 2917.770313 159.483049 
L 2923.195312 138.533648 
L 2928.620312 180.652924 
L 2934.045313 115.65061 
L 2939.470313 139.942578 
L 2944.895313 119.590166 
L 2950.320312 116.473861 
L 2955.745313 119.806881 
L 2961.170313 117.162626 
L 2966.595313 142.498417 
L 2972.020312 153.695778 
L 2977.445312 198.242827 
L 2982.870313 139.140483 
L 2988.295312 136.212619 
L 2993.720313 136.856011 
L 2999.145312 107.208307 
L 3004.570313 92.870226 
L 3009.995313 70.590531 
L 3015.420312 129.610347 
L 3020.845313 109.791922 
L 3026.270313 144.775172 
L 3031.695312 135.986557 
L 3037.120313 169.563904 
L 3042.545312 156.893779 
L 3047.970313 121.109665 
L 3053.395313 96.362513 
L 3058.820312 131.624083 
L 3064.245312 95.329533 
L 3069.670313 89.736258 
L 3075.095313 136.368428 
L 3080.520313 150.075823 
L 3085.945312 123.806278 
L 3091.370313 159.061062 
L 3096.795313 152.176877 
L 3102.220313 139.369506 
L 3107.645312 94.963363 
L 3113.070312 88.297058 
L 3118.495313 85.08309 
L 3123.920312 108.046294 
L 3129.345313 107.144839 
L 3134.770312 154.355536 
L 3140.195313 135.204055 
L 3151.045312 199.690909 
L 3156.470313 117.977128 
L 3161.895313 129.663603 
L 3167.320312 125.985602 
L 3172.745313 121.916916 
L 3178.170312 54.773465 
L 3183.595313 77.615422 
L 3189.020313 158.140215 
L 3194.445312 142.62675 
L 3199.870312 137.837366 
L 3205.295313 169.155788 
L 3210.720313 140.794236 
L 3216.145313 96.979062 
L 3221.570312 81.663085 
L 3226.995313 78.015987 
L 3232.420313 80.014954 
L 3237.845313 126.608238 
L 3243.270312 135.123622 
L 3248.695312 185.854815 
L 3254.120313 163.100409 
L 3259.545312 166.791116 
L 3264.970313 95.974555 
L 3270.395312 121.020085 
L 3275.820313 112.498214 
L 3281.245313 100.824613 
L 3286.670312 115.175966 
L 3292.095313 135.106524 
L 3297.520313 131.309106 
L 3302.945312 145.819029 
L 3308.370313 167.435374 
L 3313.795312 171.38737 
L 3319.220313 145.468759 
L 3324.645313 107.534993 
L 3330.070312 117.501053 
L 3335.495312 142.202035 
L 3340.920313 126.347315 
L 3346.345313 142.94003 
L 3351.770313 142.323382 
L 3357.195312 209.585485 
L 3362.620313 149.511799 
L 3368.045313 159.437078 
L 3373.470313 127.753052 
L 3378.895312 160.97637 
L 3384.320312 129.720684 
L 3389.745313 137.745291 
L 3395.170312 101.571024 
L 3400.595313 111.080769 
L 3406.020312 88.115337 
L 3411.445313 58.649886 
L 3416.870313 108.359674 
L 3422.295312 132.45565 
L 3427.720313 130.976233 
L 3433.145313 200.133353 
L 3438.570312 162.736734 
L 3443.995313 162.962463 
L 3449.420312 105.694196 
L 3454.845313 92.671008 
L 3460.270313 86.24244 
L 3465.695312 107.919824 
L 3471.120312 110.239556 
L 3476.545313 137.789665 
L 3481.970313 133.702052 
L 3487.395313 165.971724 
L 3492.820312 149.191866 
L 3498.245313 169.175413 
L 3503.670313 134.590567 
L 3509.095313 150.675607 
L 3514.520312 93.162151 
L 3519.945312 119.537476 
L 3525.370313 104.075869 
L 3530.795312 144.837741 
L 3536.220313 156.107618 
L 3541.645312 163.903169 
L 3547.070313 143.821792 
L 3552.495313 156.9959 
L 3557.920312 101.825327 
L 3563.345313 102.107505 
L 3568.770313 73.798345 
L 3574.195312 92.999124 
L 3579.620313 124.078777 
L 3585.045312 103.078282 
L 3590.470313 143.796944 
L 3595.895313 152.159713 
L 3601.320312 172.484882 
L 3606.745312 156.209905 
L 3612.170313 150.467607 
L 3617.595313 109.900629 
L 3623.020313 131.000283 
L 3628.445312 83.468489 
L 3633.870313 111.694157 
L 3639.295313 160.242533 
L 3644.720313 173.10306 
L 3650.145312 151.249078 
L 3655.570312 176.952836 
L 3660.995313 156.243102 
L 3666.420312 96.367004 
L 3671.845313 105.434438 
L 3677.270312 120.359562 
L 3682.695313 81.366803 
L 3688.120313 73.715717 
L 3693.545312 139.094911 
L 3698.970313 160.169817 
L 3704.395313 158.968289 
L 3709.820312 161.297401 
L 3715.245313 146.926521 
L 3720.670312 143.554416 
L 3726.095313 96.255603 
L 3731.520313 77.505385 
L 3736.945312 97.094321 
L 3742.370312 149.027242 
L 3747.795313 87.675853 
L 3753.220313 174.09303 
L 3758.645313 176.173361 
L 3764.070312 143.10655 
L 3769.495313 96.773989 
L 3774.920313 120.692136 
L 3780.345313 137.86737 
L 3785.770312 81.783235 
L 3791.195312 102.043439 
L 3796.620313 145.546797 
L 3802.045312 151.361045 
L 3807.470313 165.812756 
L 3812.895312 183.862168 
L 3818.320313 138.48465 
L 3823.745313 142.536238 
L 3829.170312 142.011233 
L 3834.595313 103.581733 
L 3840.020313 116.337312 
L 3845.445312 92.505519 
L 3850.870313 128.715046 
L 3856.295312 123.493364 
L 3861.720313 188.657839 
L 3867.145313 150.392929 
L 3872.570312 166.999183 
L 3877.995312 182.704082 
L 3883.420313 176.462059 
L 3888.845313 122.601922 
L 3894.270313 104.998713 
L 3899.695312 113.725224 
L 3905.120313 94.456919 
L 3910.545313 131.158221 
L 3910.545313 131.158221 
" clip-path="url(#pbf4bbc2bc2)" style="fill: none; stroke: #1f77b4; stroke-width: 1.5; stroke-linecap: square"/>
   </g>
   <g id="patch_3">
    <path d="M 64.220312 210.238125 
L 64.220312 43.918125 
" style="fill: none; stroke: #000000; stroke-width: 0.8; stroke-linejoin: miter; stroke-linecap: square"/>
   </g>
   <g id="patch_4">
    <path d="M 3970.220313 210.238125 
L 3970.220313 43.918125 
" style="fill: none; stroke: #000000; stroke-width: 0.8; stroke-linejoin: miter; stroke-linecap: square"/>
   </g>
   <g id="patch_5">
    <path d="M 64.220312 210.238125 
L 3970.220313 210.238125 
" style="fill: none; stroke: #000000; stroke-width: 0.8; stroke-linejoin: miter; stroke-linecap: square"/>
   </g>
   <g id="patch_6">
    <path d="M 64.220312 43.918125 
L 3970.220313 43.918125 
" style="fill: none; stroke: #000000; stroke-width: 0.8; stroke-linejoin: miter; stroke-linecap: square"/>
   </g>
   <g id="text_79">
    <!-- NRZ-L -->
    <g transform="translate(1999.049688 37.918125) scale(0.12 -0.12)">
     <defs>
      <path id="DejaVuSans-4e" d="M 628 4666 
L 1478 4666 
L 3547 763 
L 3547 4666 
L 4159 4666 
L 4159 0 
L 3309 0 
L 1241 3903 
L 1241 0 
L 628 0 
L 628 4666 
z
" transform="scale(0.015625)"/>
      <path id="DejaVuSans-52" d="M 2841 2188 
Q 3044 2119 3236 1894 
Q 3428 1669 3622 1275 
L 4263 0 
L 3584 0 
L 2988 1197 
Q 2756 1666 2539 1819 
Q 2322 1972 1947 1972 
L 1259 1972 
L 1259 0 
L 628 0 
L 628 4666 
L 2053 4666 
Q 2853 4666 3247 4331 
Q 3641 3997 3641 3322 
Q 3641 2881 3436 2590 
Q 3231 2300 2841 2188 
z
M 1259 4147 
L 1259 2491 
L 2053 2491 
Q 2509 2491 2742 2702 
Q 2975 2913 2975 3322 
Q 2975 3731 2742 3939 
Q 2509 4147 2053 4147 
L 1259 4147 
z
" transform="scale(0.015625)"/>
      <path id="DejaVuSans-5a" d="M 359 4666 
L 4025 4666 
L 4025 4184 
L 1075 531 
L 4097 531 
L 4097 0 
L 288 0 
L 288 481 
L 3238 4134 
L 359 4134 
L 359 4666 
z
" transform="scale(0.015625)"/>
      <path id="DejaVuSans-2d" d="M 313 2009 
L 1997 2009 
L 1997 1497 
L 313 1497 
L 313 2009 
z
" transform="scale(0.015625)"/>
      <path id="DejaVuSans-4c" d="M 628 4666 
L 1259 4666 
L 1259 531 
L 3531 531 
L 3531 0 
L 628 0 
L 628 4666 
z
" transform="scale(0.015625)"/>
     </defs>
     <use xlink:href="#DejaVuSans-4e"/>
     <use xlink:href="#DejaVuSans-52" x="74.804688"/>
     <use xlink:href="#DejaVuSans-5a" x="144.287109"/>
     <use xlink:href="#DejaVuSans-2d" x="211.042969"/>
     <use xlink:href="#DejaVuSans-4c" x="247.126953"/>
    </g>
   </g>
  </g>
 </g>
 <defs>
  <clipPath id="pbf4bbc2bc2">
   <rect x="64.220312" y="43.918125" width="3906" height="166.32"/>
  </clipPath>
 </defs>
</svg>
